<?xml version="1.0" standalone="no"?>
<!DOCTYPE svg PUBLIC "-//W3C//DTD SVG 20010904//EN"
 "http://www.w3.org/TR/2001/REC-SVG-20010904/DTD/svg10.dtd">
<svg version="1.0" xmlns="http://www.w3.org/2000/svg"
 width="420.000000pt" height="420.000000pt" viewBox="0 0 420.000000 420.000000"
 preserveAspectRatio="xMidYMid meet">

<g transform="translate(0.000000,420.000000) scale(0.100000,-0.100000)"
fill="#000000" stroke="none">
<path d="M1977 3675 c-270 -37 -470 -110 -630 -228 -73 -54 -83 -72 -21 -35
32 18 36 19 25 4 -8 -10 -45 -33 -81 -51 l-67 -34 3 25 c1 13 0 24 -2 24 -18
0 -147 -114 -214 -188 -44 -50 -102 -107 -128 -126 -52 -38 -123 -110 -169
-171 -42 -56 -141 -223 -195 -330 -25 -49 -61 -115 -80 -145 -19 -30 -56 -100
-83 -155 -27 -55 -54 -107 -60 -115 -7 -8 -18 -33 -25 -54 -10 -31 -99 -228
-128 -281 -3 -7 -1 -7 6 0 6 6 48 78 93 160 116 213 247 428 355 585 92 134
165 226 144 183 -5 -12 -10 -39 -10 -61 0 -112 -110 -522 -151 -563 -15 -15
-29 -20 -49 -15 -19 3 -30 1 -34 -9 -3 -8 -10 -15 -15 -15 -6 0 3 22 19 50 16
27 27 50 24 50 -19 0 -64 -34 -69 -52 -4 -13 -26 -54 -50 -93 -49 -80 -99
-200 -90 -215 3 -5 15 -10 26 -10 10 0 19 -4 19 -9 0 -18 -20 -22 -54 -10 -25
9 -44 9 -77 1 -69 -17 -124 -43 -111 -51 7 -4 -9 -13 -38 -21 -53 -14 -60 -26
-35 -64 11 -16 14 -38 10 -77 -7 -61 4 -239 14 -239 3 1 20 19 36 41 35 48 96
109 109 109 5 0 -11 -18 -35 -41 -50 -46 -47 -46 36 3 102 60 116 53 16 -8
-94 -59 -121 -90 -121 -144 0 -22 15 -27 24 -7 3 6 4 -1 1 -18 -3 -16 -9 -72
-15 -124 -5 -51 -11 -95 -14 -98 -2 -2 -8 6 -12 19 -7 21 -8 19 -14 -15 -4
-21 -3 -60 1 -88 4 -27 10 -85 13 -129 2 -43 7 -83 10 -88 3 -5 8 -34 10 -63
3 -48 7 -54 27 -57 13 -2 38 -19 55 -38 28 -30 38 -34 80 -34 31 0 44 -3 36
-9 -11 -7 -11 -9 1 -14 16 -6 120 18 222 51 34 11 106 28 160 38 132 24 419
24 552 0 50 -9 158 -21 240 -26 81 -5 204 -17 273 -25 124 -15 382 -41 513
-52 l67 -6 44 47 44 47 63 -6 c35 -4 115 -13 177 -21 209 -26 387 -14 547 36
55 17 111 34 124 38 17 5 37 32 70 97 26 50 58 106 73 125 14 19 58 94 98 167
69 125 163 258 258 369 78 91 136 291 147 514 4 63 11 127 17 143 10 25 14 27
67 27 35 0 65 6 79 16 19 13 62 85 62 105 0 4 -40 37 -89 73 -66 49 -105 88
-149 149 -33 45 -70 93 -81 107 -79 99 -183 236 -202 267 -90 147 -351 413
-512 521 -60 39 -111 72 -114 72 -4 0 -14 6 -22 14 -9 8 -63 39 -121 69 -142
75 -251 113 -450 156 -195 43 -304 49 -473 26z m-692 -334 c-15 -13 -127 -52
-121 -42 4 5 23 15 44 21 20 7 41 16 47 21 5 5 16 9 24 9 9 0 11 -3 6 -9z m23
-78 c5 -10 12 -36 15 -58 4 -22 13 -62 21 -90 13 -47 13 -51 -5 -67 -16 -13
-26 -15 -45 -8 -29 11 -101 13 -90 3 4 -4 22 -6 41 -5 18 1 36 -2 40 -8 3 -5
2 -10 -4 -10 -5 0 -31 -18 -56 -40 -25 -22 -51 -40 -56 -40 -5 0 0 18 10 39
l20 39 -49 21 c-27 12 -58 21 -69 21 -11 0 -54 -31 -95 -70 -73 -67 -113 -95
-68 -47 12 13 22 28 22 34 0 18 88 103 175 170 44 33 97 77 117 97 41 40 63
45 76 19z m1150 -219 c34 -3 69 -12 76 -20 8 -8 23 -14 33 -15 11 0 13 -3 5
-6 -7 -3 -26 0 -42 7 -17 7 -88 13 -167 15 -234 4 -247 5 -239 12 19 19 160
22 334 7z m-60 -38 c15 -7 52 -17 82 -21 56 -7 127 -31 118 -40 -3 -3 -18 2
-34 10 -17 8 -61 17 -100 21 -57 5 -72 4 -83 -10 -7 -9 -19 -16 -25 -16 -7 0
-23 -11 -36 -25 -13 -14 -27 -25 -31 -25 -9 0 -3 40 7 49 4 3 4 -3 0 -14 -5
-15 -4 -17 4 -9 16 16 -4 54 -28 55 -9 0 6 9 33 19 62 23 60 23 93 6z m319
-70 c47 -43 94 -115 107 -166 4 -14 -5 -2 -20 25 -42 81 -75 124 -118 155 -22
17 -35 30 -29 30 6 0 33 -20 60 -44z m-1597 31 c0 -2 -10 -12 -22 -23 l-23
-19 19 23 c18 21 26 27 26 19z m-6 -53 c22 -9 20 -24 -3 -24 -21 0 -34 13 -24
24 8 7 8 7 27 0z m1601 -24 c10 -11 16 -20 13 -20 -3 0 -13 9 -23 20 -10 11
-16 20 -13 20 3 0 13 -9 23 -20z m-1650 -20 c3 -5 2 -10 -4 -10 -5 0 -13 5
-16 10 -3 6 -2 10 4 10 5 0 13 -4 16 -10z m1180 1 c18 -7 18 -9 -8 -25 -17
-12 -36 -16 -52 -12 -33 8 -32 22 3 34 33 13 32 12 57 3z m-1192 -28 c-7 -2
-19 -2 -25 0 -7 3 -2 5 12 5 14 0 19 -2 13 -5z m1727 -190 c-11 -17 -11 -17
-6 0 3 10 7 31 7 45 l2 27 4 -27 c2 -15 -1 -35 -7 -45z m47 20 c-3 -10 -5 -4
-5 12 0 17 2 24 5 18 2 -7 2 -21 0 -30z m-770 11 c-3 -3 -12 -4 -19 -1 -8 3
-5 6 6 6 11 1 17 -2 13 -5z m746 -105 c-10 -17 -54 -65 -98 -107 -111 -106
-258 -234 -215 -188 19 21 85 82 146 137 61 54 125 119 143 144 37 52 51 60
24 14z m-1573 -154 c0 -23 -37 -55 -64 -55 -33 0 -38 20 -13 48 24 26 77 31
77 7z m364 -194 l27 -28 -26 -32 c-32 -37 -41 -38 -72 -9 -29 27 -29 51 -1 78
29 27 39 25 72 -9z m856 16 c0 -2 -10 -12 -22 -23 l-23 -19 19 23 c18 21 26
27 26 19z m-1250 -299 c-24 -32 -30 -36 -25 -18 7 26 45 73 52 66 3 -2 -10
-24 -27 -48z m-447 -55 c-7 -2 -21 -2 -30 0 -10 3 -4 5 12 5 17 0 24 -2 18 -5z
m130 -130 c-7 -2 -19 -2 -25 0 -7 3 -2 5 12 5 14 0 19 -2 13 -5z m90 0 c-13
-2 -33 -2 -45 0 -13 2 -3 4 22 4 25 0 35 -2 23 -4z m-200 -10 c-7 -2 -19 -2
-25 0 -7 3 -2 5 12 5 14 0 19 -2 13 -5z m-590 -53 c-81 -7 -92 -20 -18 -20 69
0 65 -11 -15 -38 -30 -11 -63 -23 -72 -27 -15 -6 -18 -2 -18 27 0 59 33 76
129 68 l56 -4 -62 -6z m-29 -336 c-24 -31 -30 -34 -33 -19 -2 12 8 29 24 43
38 32 42 20 9 -24z m2166 -160 c28 -28 -21 -33 -376 -44 -645 -18 -728 -22
-766 -35 -21 -7 -38 -11 -38 -9 0 8 81 45 88 40 4 -2 93 2 197 9 105 7 273 18
375 25 477 30 504 30 520 14z m183 -161 c-7 -2 -21 -2 -30 0 -10 3 -4 5 12 5
17 0 24 -2 18 -5z m-425 -65 c-5 -16 -158 -32 -171 -19 -21 21 8 31 89 31 64
0 85 -3 82 -12z m-468 -133 c-7 -8 -18 -15 -24 -15 -6 0 -2 7 8 15 25 19 32
19 16 0z m224 4 c-3 -6 -1 -15 7 -20 8 -5 2 -7 -19 -7 -18 1 -35 6 -39 11 -3
6 -1 7 4 4 6 -4 16 0 23 8 14 17 35 20 24 4z m-389 -89 c-28 -12 -37 -12 -30
0 3 6 16 10 28 9 21 0 21 -1 2 -9z m292 -16 c-3 -3 -12 -4 -19 -1 -8 3 -5 6 6
6 11 1 17 -2 13 -5z m81 -11 c-10 -2 -26 -2 -35 0 -10 3 -2 5 17 5 19 0 27 -2
18 -5z m177 -13 c48 -7 49 -7 10 -8 -22 0 -62 3 -90 8 -48 7 -49 7 -10 8 22 0
63 -3 90 -8z m2 -46 c-3 -3 -12 -4 -19 -1 -8 3 -5 6 6 6 11 1 17 -2 13 -5z
m62 -50 c9 -8 -65 -2 -84 6 -13 6 -2 7 30 3 28 -3 52 -7 54 -9z"/>
<path d="M994 3028 l-19 -23 23 19 c21 18 27 26 19 26 -2 0 -12 -10 -23 -22z"/>
<path d="M1562 2190 c-24 -31 -15 -41 12 -14 14 13 22 44 13 44 -2 0 -13 -13
-25 -30z"/>
<path d="M460 2200 c-6 -11 -8 -20 -6 -20 3 0 10 9 16 20 6 11 8 20 6 20 -3 0
-10 -9 -16 -20z"/>
</g>
</svg>
